<?xml version="1.0" encoding="UTF-8"?><svg width="200px" height="230px" viewBox="0 0 200 230" version="1.1" xmlns="http://www.w3.org/2000/svg" xmlns:xlink="http://www.w3.org/1999/xlink"><title>Element Domains</title><desc>Element Domains for Craft CMS (by Flipbox)</desc><defs><linearGradient x1="0%" y1="0%" x2="50%" y2="100%" id="linearGradient-1"><stop stop-color="#F146E5" offset="0%"></stop><stop stop-color="#7208D6" offset="100%"></stop></linearGradient></defs><g id="Page-1" stroke="none" stroke-width="1" fill="none" fill-rule="evenodd"><g id="Element-Domains" fill-rule="nonzero"><g id="Icon"><polygon id="Polygon" fill="url(#linearGradient-1)" points="100 0 200 57.5 200 172.5 100 230 0 172.5 0 57.5"></polygon><g id="Group" transform="translate(51.000000, 68.000000)" fill="#FFFFFF"><polygon id="Shape" points="0.100773258 84.2800344 30.903799 84.2800344 30.903799 94.5253156 22.707574 94.5253156 22.707574 98.6570191 76.0502183 98.6570191 76.0502183 94.5253156 67.8539934 94.5253156 67.8539934 84.2800344 98.6570191 84.2800344 98.6570191 71.9521059 0.100773258 71.9521059"></polygon><polygon id="Shape" points="24.7230392 52.032592 26.4025935 46.7587915 28.0485567 52.032592 31.9787137 51.9990009 36.8158301 35.5729599 32.852082 34.430863 29.9296575 44.3738244 28.3508764 39.3015704 24.4207194 39.3015704 22.8419384 44.3738244 19.9195139 34.430863 15.9557658 35.5729599 20.7928821 51.9990009"></polygon><rect id="Rectangle-path" x="78.1328657" y="14.477758" width="4.09811247" height="4.09811247"></rect><polygon id="Shape" points="47.732933 52.032592 49.3788962 46.7587915 51.0248594 52.032592 54.9550164 51.9990009 59.7921328 35.5729599 55.8619758 34.430863 52.9395513 44.3738244 51.3271792 39.3015704 47.4306132 39.3015704 45.8182411 44.3738244 42.8958166 34.430863 38.9656596 35.5729599 43.8027759 51.9990009"></polygon><polygon id="Shape" points="70.7092357 52.032592 72.3551989 46.7587915 74.0347532 52.032592 77.9649102 51.9990009 82.8020266 35.5729599 78.8382785 34.430863 75.915854 44.3738244 74.337073 39.3015704 70.4069159 39.3015704 68.8281349 44.3738244 65.9057104 34.430863 61.9419623 35.5729599 66.7790787 51.9990009"></polygon><rect id="Rectangle-path" x="69.9030496" y="14.477758" width="4.09811247" height="4.09811247"></rect><rect id="Rectangle-path" x="20.6249267" y="14.477758" width="38.9992507" height="4.09811247"></rect><path d="M0.100773258,0.100773258 L0.100773258,67.8539934 L98.623428,67.8539934 L98.623428,0.100773258 L0.100773258,0.100773258 Z M86.3290906,57.5751211 L12.4287018,57.5751211 L12.4287018,26.7720954 L86.3290906,26.7720954 L86.3290906,57.5751211 Z M86.3290906,22.6739829 L12.4287018,22.6739829 L12.4287018,10.3460544 L86.3290906,10.3460544 L86.3290906,22.6739829 Z" id="Shape"></path></g></g></g></g></svg>